<?xml version='1.0' encoding='UTF-8'?>
<mxfile host="app.diagrams.net"><diagram name="OLAP Star Schema" id="OLAP1"><mxGraphModel><root><mxCell id="0" /><mxCell id="1" parent="0" /><mxCell id="fact" value="Faktentabelle: Finanzkennzahlen" style="shape=swimlane;fillColor=#fff2cc;" vertex="1" parent="1"><mxGeometry x="300" y="200" width="160" height="60" as_="geometry" /></mxCell><mxCell id="prod" value="Dimension: Produkt" style="shape=swimlane;fillColor=#dae8fc;" vertex="1" parent="1"><mxGeometry x="100" y="50" width="160" height="60" as_="geometry" /></mxCell><mxCell id="zeit" value="Dimension: Zeit" style="shape=swimlane;fillColor=#dae8fc;" vertex="1" parent="1"><mxGeometry x="300" y="50" width="160" height="60" as_="geometry" /></mxCell><mxCell id="region" value="Dimension: Region" style="shape=swimlane;fillColor=#dae8fc;" vertex="1" parent="1"><mxGeometry x="500" y="50" width="160" height="60" as_="geometry" /></mxCell><mxCell id="planung" value="Dimension: Planungsart" style="shape=swimlane;fillColor=#dae8fc;" vertex="1" parent="1"><mxGeometry x="300" y="350" width="160" height="60" as_="geometry" /></mxCell><mxCell style="endArrow=none;" edge="1" parent="1" source="prod" target="fact"><mxGeometry relative="1" as_="geometry" /></mxCell><mxCell style="endArrow=none;" edge="1" parent="1" source="zeit" target="fact"><mxGeometry relative="1" as_="geometry" /></mxCell><mxCell style="endArrow=none;" edge="1" parent="1" source="region" target="fact"><mxGeometry relative="1" as_="geometry" /></mxCell><mxCell style="endArrow=none;" edge="1" parent="1" source="planung" target="fact"><mxGeometry relative="1" as_="geometry" /></mxCell></root></mxGraphModel></diagram></mxfile>